<svg width="182" height="60" viewBox="0 0 182 60" xmlns="http://www.w3.org/2000/svg">
<title>Black Telehealth</title>
<path fill-rule="evenodd" clip-rule="evenodd" d="M82.8077 0H76.9762V26.7672H82.8077C82.9643 26.0253 82.9317 25.2244 82.8992 24.425C82.8241 22.5774 82.7494 20.7383 85.0108 19.6552C85.6587 20.6897 86.3067 21.6918 86.9546 22.694C87.6026 23.6961 88.2505 24.6983 88.8985 25.7328C88.9577 25.8214 89.0169 25.9236 89.0777 26.0285L89.0778 26.0286L89.0779 26.0288L89.078 26.0289L89.0781 26.029L89.0782 26.0293C89.2832 26.383 89.5059 26.7672 89.8056 26.7672H96.6739C93.9525 22.7586 91.4903 19.0086 89.0281 15.1293L89.5749 14.526C91.839 12.0281 94.0251 9.61622 96.5443 6.98276C96.0362 6.98276 95.5775 6.99919 95.1506 7.01448C94.3797 7.04208 93.7125 7.06598 93.0453 6.98276C90.0648 6.59483 87.8617 7.5 86.3067 10.0862C85.6311 11.0492 84.8118 11.9405 84.0094 12.8134L84.0092 12.8136L84.0091 12.8138C83.7341 13.1129 83.4611 13.4099 83.1965 13.7069C83.1317 13.6422 83.0669 13.6099 83.0021 13.5776C82.9373 13.5453 82.8725 13.5129 82.8077 13.4483V0ZM0.258878 0.388765V26.6388C1.78458 26.6388 3.28096 26.6534 4.7628 26.6679H4.76306H4.76331H4.76356H4.76381H4.76406H4.76431H4.76456H4.76481H4.76505H4.7653H4.76541C7.68792 26.6965 10.5539 26.7246 13.477 26.6388C14.9025 26.6388 16.328 26.1215 17.6239 25.475C22.4187 23.0181 22.5483 16.2939 18.0127 13.5784C17.7535 13.4491 17.6239 13.3198 17.3647 13.0612C19.179 12.156 20.2157 10.7336 20.6045 8.92325C21.5116 4.65601 18.9198 1.16463 14.3842 0.647386C12.3107 0.337041 10.2373 0.35773 8.16385 0.37842C7.64549 0.383593 7.12713 0.388765 6.60877 0.388765H0.258878ZM8.41322 21.4957H8.41315H8.41308H8.41302H8.41295H8.41289H8.41283H8.41277H8.41271H8.41265H8.41259C7.73639 21.4811 7.05039 21.4664 6.34959 21.4664V15.6474C7.04544 15.6474 7.72669 15.6328 8.40315 15.6183H8.4032H8.40324H8.40327H8.40332H8.40337H8.40342H8.40347H8.40352H8.40357H8.40362C9.74265 15.5897 11.0629 15.5615 12.4403 15.6474C14.125 15.7767 15.0321 17.0698 15.0321 18.6215C15.0321 20.0439 13.9954 21.337 12.3107 21.4664C11.0241 21.5519 9.73744 21.5242 8.41322 21.4957ZM8.29343 10.8916C7.64548 10.8773 6.99754 10.8629 6.34959 10.8629C6.34959 10.6653 6.33068 10.5055 6.31453 10.369L6.31453 10.369C6.2884 10.1481 6.2695 9.98826 6.34959 9.82842V5.56118C7.05061 5.56118 7.73682 5.5464 8.41322 5.53183C9.73744 5.5033 11.0241 5.47559 12.3107 5.56118C13.6066 5.69049 14.6433 6.98359 14.5137 8.2767C14.5137 9.69911 13.6066 10.7336 12.1811 10.8629C10.8852 10.9491 9.58935 10.9204 8.29346 10.8916H8.29343ZM120.778 59.5475L120.778 59.5474L120.778 59.5474C120.519 59.4504 120.259 59.3535 120 59.2242C117.538 58.319 115.853 56.3793 115.724 53.9224C115.594 51.0776 116.761 48.8793 119.482 47.9742C121.05 47.422 122.749 47.1973 124.439 46.9738C125.124 46.8832 125.807 46.7929 126.48 46.6811C126.694 46.6811 126.908 46.6419 127.1 46.6066C127.257 46.5779 127.4 46.5518 127.517 46.5518C127.776 44.4828 127.257 43.5776 125.702 43.1897C123.758 42.6724 122.592 43.4483 121.685 45.5173H116.372C116.372 43.0604 117.538 41.25 119.482 40.0862C122.851 38.1466 126.48 38.1466 129.979 39.8276C132.57 41.1207 133.348 43.5776 133.348 46.1638C133.478 48.2328 133.478 50.3018 133.348 52.3707C133.348 53.6638 133.607 54.569 135.292 54.4397V56.8966C135.292 58.8362 135.033 59.0949 133.089 59.0949C131.015 59.2242 129.331 58.5776 128.553 56.8966C127.711 57.3491 126.901 57.7694 126.091 58.1896C125.281 58.6099 124.471 59.0302 123.629 59.4828C122.981 59.8707 122.333 59.8707 121.555 59.8707C121.296 59.7414 121.037 59.6444 120.778 59.5475ZM127.646 50.6897C127.181 50.7318 126.73 50.7603 126.284 50.7884C125.362 50.8465 124.46 50.9033 123.499 51.0776C121.944 51.3362 121.296 52.2414 121.426 53.4052C121.555 54.569 122.722 55.3449 124.018 55.2155C126.48 55.0862 127.516 53.7931 127.646 50.6897ZM28.2504 59.8707C28.1208 59.7414 27.9912 59.6121 27.8616 59.6121C19.3087 58.319 18.0128 47.7155 21.6413 42.6724C23.9739 39.569 27.9912 38.1465 32.3973 39.181C36.0258 40.0862 38.3584 42.6724 39.0064 46.681C39.6543 51.0776 39.6543 51.0776 35.2483 51.0776H26.0474C26.0474 53.0172 26.9545 54.4397 28.5096 54.9569C30.3238 55.4741 32.0085 54.9569 33.1748 53.6638C33.434 53.4052 33.8228 53.0172 34.0819 53.0172C35.1137 52.9314 36.0885 52.9595 37.0819 52.9881H37.082C37.5858 53.0026 38.0943 53.0172 38.6176 53.0172C38.488 55.7328 36.285 58.319 33.1748 59.2241C32.786 59.3534 32.3973 59.4504 32.0085 59.5474C31.6197 59.6444 31.231 59.7414 30.8422 59.8707H28.2504ZM26.0474 47.1983H33.0452C33.1748 44.8707 32.0085 43.5776 29.8055 43.4483C27.6025 43.319 26.177 44.8707 26.0474 47.1983ZM59.8705 59.612C60.0001 59.612 60.2593 59.7414 60.3889 59.8707C61.1664 59.8707 62.0735 59.8707 63.1102 60C63.3046 59.9353 63.5313 59.8707 63.758 59.8061L63.7582 59.806L63.7585 59.8059L63.7585 59.8059L63.7586 59.8059L63.7586 59.8059L63.7587 59.8059L63.7587 59.8059L63.7588 59.8059L63.7588 59.8058L63.7588 59.8058L63.7589 59.8058L63.7589 59.8058L63.759 59.8058C63.9855 59.7412 64.212 59.6766 64.4061 59.612C67.7755 58.5776 69.9785 56.6379 70.8856 53.1465C70.2377 53.0172 69.8489 53.0172 69.3305 53.0172C68.9896 53.0172 68.6347 53.0032 68.275 52.9891C67.5408 52.9601 66.7866 52.9304 66.0908 53.0172C65.702 53.0172 65.4429 53.2758 65.1837 53.5345C64.0174 54.9569 62.3327 55.6034 60.5185 54.9569C58.9634 54.4396 58.0562 53.0172 58.0562 51.0776H71.1448C71.1448 50.599 71.1742 50.1205 71.2033 49.6468V49.6467V49.6466V49.6465V49.6464V49.6462V49.6461V49.646V49.6458V49.6457V49.6456V49.6455V49.6454V49.6453C71.2606 48.7117 71.3167 47.7972 71.1448 46.9396C70.6264 43.1896 68.8122 40.4741 65.0541 39.3103C59.093 37.6293 53.6502 40.4741 52.2247 46.1638C50.6696 52.3707 53.7798 58.8362 59.8705 59.612ZM61.6848 43.4483C63.8878 43.4483 65.0541 44.7414 65.0541 47.1983H58.0562C58.0562 45 59.4817 43.4483 61.6848 43.4483ZM102.658 59.7298L102.658 59.7297C102.616 59.6614 102.585 59.612 102.505 59.612C94.8596 58.7069 92.3974 49.7845 95.378 43.8362C97.1922 40.0862 101.469 38.1465 106.004 39.0517C110.151 39.8276 112.873 42.8017 113.391 47.0689C113.476 47.9219 113.449 48.7748 113.421 49.6649V49.665L113.421 49.6654C113.406 50.1245 113.391 50.5936 113.391 51.0776H100.302C100.302 53.1465 101.209 54.4396 102.765 54.9569C104.449 55.4741 106.652 55.0862 107.43 53.5345C107.559 53.2758 107.948 53.0172 108.207 53.0172C108.807 52.9317 109.35 52.9593 109.912 52.9878C110.199 53.0024 110.492 53.0172 110.799 53.0172H112.873C112.354 56.3793 109.762 58.8362 106.263 59.612C106.004 59.6767 105.713 59.7414 105.421 59.806C105.13 59.8707 104.838 59.9353 104.579 60C104.06 59.8707 103.413 59.8707 102.765 59.8707C102.715 59.8214 102.685 59.7721 102.658 59.7299L102.658 59.7298ZM100.302 47.0689H107.559C107.43 44.7414 106.393 43.4483 104.32 43.3189C102.117 43.3189 100.821 44.6121 100.302 47.0689ZM91.7492 59.0949H85.9176V47.069C85.9176 44.7414 84.1034 43.4483 82.0299 44.4828C81.382 44.8707 80.734 45.5173 80.4749 46.1638C80.0861 47.069 79.9565 48.1035 79.9565 49.138V59.2242H73.9954V32.5862H79.9565V40.9914C81.9003 39.3104 83.9738 38.7931 86.3064 39.0518C89.4165 39.4397 91.7492 41.3793 91.8787 44.3535C91.8787 46.7142 91.8472 49.1065 91.8152 51.5302L91.8152 51.5313C91.7824 54.0193 91.7492 56.5405 91.7492 59.0949ZM181.685 59.0948H175.724V49.5258V46.8103C175.724 45.5172 175.335 44.4827 173.78 44.2241C172.225 43.8362 171.059 44.3534 170.411 45.6465C169.892 46.681 169.763 47.8448 169.763 48.8793C169.677 51.1106 169.705 53.3419 169.733 55.6111V55.6114V55.6117V55.612V55.6123V55.6125V55.6128V55.6131L169.733 55.6166C169.748 56.7647 169.763 57.9224 169.763 59.0948H163.801V32.4569H169.763V40.6034C170.008 40.4201 170.224 40.2946 170.411 40.1858C170.619 40.0644 170.792 39.964 170.929 39.8276C175.594 36.8534 181.555 39.6983 181.814 45.2586C181.901 48.0977 181.872 50.9941 181.843 53.9097V53.9101V53.9106V53.911V53.9114V53.9119V53.9123V53.9128C181.829 55.3783 181.814 56.8486 181.814 58.3189C181.814 58.4482 181.782 58.5776 181.75 58.7069L181.75 58.707C181.717 58.8363 181.685 58.9655 181.685 59.0948ZM54.1381 23.2659V23.2658V23.2657V23.2657V23.2656V23.2655V23.2655C54.1529 22.9358 54.1682 22.5962 54.1682 22.2414C52.3539 22.5 52.3539 21.3362 52.6131 20.1724C52.6131 17.9741 52.6131 15.7759 52.4835 13.5776C52.3539 9.31035 49.8917 6.85346 45.6153 6.46552C44.5785 6.33621 43.5418 6.33621 42.5051 6.46552C38.4878 6.85346 35.6369 9.43966 35.5073 13.1897C36.0305 13.1897 36.5391 13.2043 37.0429 13.2188C38.0363 13.2474 39.0111 13.2755 40.0429 13.1897C40.4317 13.0604 40.8204 12.8017 41.0796 12.4138C41.8572 10.8621 43.2826 10.3448 44.9673 10.8621C46.652 11.25 46.7816 12.5431 46.5224 14.0948C46.1431 14.1369 45.7638 14.1653 45.389 14.1933L45.389 14.1933C44.6112 14.2515 43.8526 14.3083 43.153 14.4828C42.7208 14.5752 42.2885 14.6603 41.858 14.745C40.4817 15.016 39.1232 15.2834 37.8399 15.7759C35.5073 16.681 34.6001 18.75 34.6001 21.0776C34.6001 23.5345 35.7664 25.3448 37.9695 26.3793C41.2092 28.0604 44.5785 27.4138 47.4295 24.4397C48.4662 26.6379 50.2805 27.1552 52.4835 27.0259C53.6498 26.8966 54.2978 26.5086 54.1682 25.0862C54.083 24.4917 54.1097 23.8971 54.1381 23.2659ZM42.2459 18.6207C43.5418 18.4914 44.8377 18.3621 46.2632 18.2328C47.0407 20.9483 44.9673 23.0173 42.3755 22.6293C41.0796 22.5 40.3021 21.8535 40.3021 20.5604C40.3021 19.3966 41.0796 18.75 42.2459 18.6207ZM21.3823 32.9741V38.2758H13.7365V48.6207V58.9655H7.64579V48.75V38.2758H0V32.8448C6.99784 32.9741 14.1253 32.9741 21.3823 32.9741ZM69.7189 14.3535H74.3841C74.2545 13.4483 74.2545 12.8018 74.2545 12.0259C73.0882 7.75865 68.6822 5.56037 63.7578 6.46554C59.7405 7.24141 57.0191 9.56899 56.112 13.4483C54.9457 17.8449 55.464 21.8535 59.0926 24.9569C62.3323 27.8018 66.0904 27.9311 69.8485 26.3793C72.8291 25.0862 74.3841 22.7587 74.5137 19.3966H69.2005C68.6822 20.9483 67.6455 22.1121 65.7016 22.1121C64.1465 22.1121 62.8506 21.5949 62.2027 20.1724C61.166 17.8449 61.166 15.5173 62.3323 13.1897C62.9802 11.7673 64.2761 11.25 65.8312 11.3793C67.2567 11.5086 68.2934 12.0259 68.8118 13.4483C68.9414 13.8362 69.3301 14.3535 69.7189 14.3535ZM160.691 54.1811C160.691 54.6074 160.705 55.0478 160.719 55.493C160.748 56.3981 160.778 57.3229 160.691 58.1897C160.691 58.5776 160.173 59.2242 159.784 59.2242C159.44 59.2487 159.091 59.2778 158.74 59.3072C157.237 59.4329 155.682 59.5631 154.211 59.3535C151.49 58.8362 150.065 56.7673 150.065 53.7931V44.4828H146.306V39.569C146.86 39.569 147.414 39.5398 147.996 39.5092C148.639 39.4753 149.316 39.4397 150.065 39.4397V34.7845C151.101 34.5259 152.106 34.2673 153.11 34.0086C154.114 33.75 155.119 33.4914 156.155 33.2328V39.4397H160.691V44.3535H156.285C156.285 45.1025 156.277 45.8433 156.268 46.578L156.268 46.5801V46.5803V46.5805V46.5806C156.244 48.7622 156.221 50.8897 156.414 53.0173C156.414 53.5345 157.581 54.1811 158.358 54.3104C158.653 54.3838 159.073 54.3321 159.547 54.2737C159.907 54.2293 160.299 54.1811 160.691 54.1811ZM47.948 32.4569H41.8572V54.181C41.8572 57.8017 44.3194 59.8707 47.948 59.612C50.2806 59.3534 50.2806 59.3534 50.2806 57.0258V54.4396C47.948 54.181 47.948 54.181 47.948 51.8534V38.0172V32.4569ZM24.1033 0H30.1941V1.81034V19.6552C30.1941 21.7241 30.3237 21.8534 32.5267 21.8534C32.5267 22.1505 32.5127 22.4615 32.4985 22.7773V22.7774C32.4695 23.4238 32.4396 24.0902 32.5267 24.6983C32.7859 26.5086 31.8787 26.8965 30.3236 27.0259C26.4359 27.2845 24.1033 25.2155 24.1033 21.3362V1.55172V0ZM145.758 55.3348C145.773 55.0051 145.788 54.6653 145.788 54.3103C143.585 54.181 143.585 54.181 143.326 51.9827V34.1379V32.4569H137.365C137.235 32.9741 137.235 33.362 137.235 33.7498V33.75V53.6638C137.365 57.6724 139.697 59.7414 143.715 59.3534C145.27 59.2241 146.047 58.8362 145.788 57.1552C145.703 56.5606 145.73 55.966 145.758 55.3348Z" />
</svg>
