<svg width="30" height="30" viewBox="0 0 30 30" xmlns="http://www.w3.org/2000/svg">
<path fill-rule="evenodd" clip-rule="evenodd" d="M15.2174 0H8.91304C7.64826 0 6.53365 0.298186 5.69403 0.522805C5.52345 0.56844 5.36422 0.611038 5.21739 0.647482C4.34783 1.07914 3.47826 1.72662 2.6087 2.58993C1.73913 3.45324 1.08696 4.31655 0.869565 5.17986C0.434783 6.25899 0.217391 7.33813 0 8.84892V15.1079V21.3669C0 22.6226 0.300347 23.7292 0.526594 24.5628C0.572559 24.7321 0.615466 24.8902 0.652174 25.036C1.08696 26.1151 1.52174 26.9784 2.3913 27.6259C3.26087 28.4892 4.13043 28.9209 5 29.3525C5.86957 29.7842 7.17391 30 8.69565 30H15H21.3043C22.5691 30 23.6837 29.7018 24.5234 29.4772C24.6939 29.4316 24.8532 29.389 25 29.3525C26.087 28.9209 26.9565 28.4892 27.6087 27.6259L27.6087 27.6259L27.6087 27.6259C28.2609 26.7626 28.913 25.8993 29.3478 25.036C29.7826 24.1727 30 22.8777 30 21.3669V15.1079V8.84892C30 7.59325 29.6997 6.48667 29.4734 5.6531L29.4734 5.65308L29.4734 5.65289C29.4274 5.48361 29.3845 5.32558 29.3478 5.17986C28.913 4.10072 28.4783 3.23741 27.6087 2.58993C27.3235 2.37758 27.0617 2.14202 26.808 1.9137C26.288 1.44583 25.8018 1.00835 25.2174 0.863309C24.3478 0.431655 23.0435 0.215827 21.5217 0.215827C19.7826 0 19.3478 0 15.2174 0ZM15.2174 2.80576H21.3043C22.8261 2.80576 23.6957 3.02158 24.1304 3.23741C24.7826 3.45324 25.4348 3.88489 25.8696 4.31655C26.3043 4.7482 26.7391 5.39568 26.9565 6.04317C27.1739 6.47482 27.3913 7.33813 27.3913 8.84892V14.8921V20.9353C27.3913 22.446 27.1739 23.3094 26.9565 23.741C26.7391 24.3885 26.3043 25.036 25.8696 25.4676C25.4348 25.8993 24.7826 26.3309 24.1304 26.5468C23.6957 26.7626 22.8261 26.9784 21.3043 26.9784H15.2174H9.13043C7.6087 26.9784 6.73913 26.7626 6.30435 26.5468C5.65217 26.3309 5 25.8993 4.56522 25.4676C4.13043 25.036 3.69565 24.3885 3.47826 23.741C3.26087 23.3094 3.04348 22.446 3.04348 20.9353V14.8921V8.84892C3.04348 7.33813 3.26087 6.47482 3.47826 6.04317C3.69565 5.39568 4.13043 4.7482 4.56522 4.31655C5 3.88489 5.65217 3.45324 6.30435 3.23741C6.73913 3.02158 7.6087 2.80576 9.13043 2.80576H15.2174ZM15.2174 20.0718C12.3914 20.0718 10.2174 17.9135 10.2174 15.1077C10.2174 12.302 12.3914 10.1437 15.2174 10.1437C18.0435 10.1437 20.2174 12.302 20.2174 15.1077C20.2174 17.9135 18.0435 20.0718 15.2174 20.0718ZM15.2174 7.33794C10.8696 7.33794 7.39136 10.7912 7.39136 15.1077C7.39136 19.4243 10.8696 22.8775 15.2174 22.8775C19.5653 22.8775 23.0435 19.4243 23.0435 15.1077C23.0435 10.7912 19.5653 7.33794 15.2174 7.33794ZM23.4783 8.84904C24.3478 8.84904 25.2174 8.20156 25.2174 7.12242C25.2174 6.04328 24.3478 5.17998 23.4783 5.3958C22.6087 5.3958 21.7391 6.04328 21.7391 7.12242C21.7391 7.98573 22.3913 8.84904 23.4783 8.84904Z" />
</svg>
