<svg width="30" height="30" viewBox="0 0 30 30" xmlns="http://www.w3.org/2000/svg">
<title>Twitter</title>
<path d="M9.40857 26.4004C20.7379 26.4004 26.9398 17.0081 26.9398 8.86923C26.9398 8.60879 26.9398 8.33207 26.9235 8.07162C28.1281 7.2089 29.1698 6.11829 30 4.88118C28.8931 5.36951 27.7048 5.69507 26.4677 5.85784C27.7374 5.09279 28.7141 3.88824 29.1861 2.45579C27.9978 3.15573 26.6793 3.67662 25.2794 3.95334C24.1563 2.74879 22.5448 2 20.7868 2C17.3847 2 14.6175 4.76723 14.6175 8.16929C14.6175 8.65762 14.6663 9.12968 14.7802 9.56918C9.65274 9.30873 5.11124 6.86707 2.06729 3.12317C1.5464 4.03473 1.23713 5.09279 1.23713 6.21596C1.23713 8.34835 2.32773 10.2366 3.97179 11.3435C2.96256 11.3109 2.01847 11.0342 1.1883 10.5784C1.1883 10.611 1.1883 10.6272 1.1883 10.6598C1.1883 13.6386 3.32068 16.1291 6.13674 16.6989C5.61585 16.8454 5.07868 16.9105 4.50896 16.9105C4.11829 16.9105 3.72761 16.8779 3.35322 16.7965C4.13456 19.2382 6.41346 21.0287 9.11558 21.0776C6.99946 22.7216 4.34619 23.7146 1.46502 23.7146C0.960405 23.7146 0.472056 23.682 0 23.6332C2.68584 25.3749 5.92512 26.4004 9.40857 26.4004Z" />
</svg>
