<svg width="30" height="30" viewBox="0 0 30 30" xmlns="http://www.w3.org/2000/svg">
<title>LinkedIn</title>
<path d="M25.58 25.56H21.14V18.6C21.14 16.94 21.12 14.8 18.82 14.8C16.5 14.8 16.16 16.6 16.16 18.48V25.56H11.72V11.24H15.98V13.2H16.04C16.64 12.08 18.08 10.88 20.24 10.88C24.74 10.88 25.58 13.84 25.58 17.7V25.56ZM6.67999 9.3C5.25999 9.3 4.10001 8.14 4.10001 6.72C4.10001 5.3 5.25999 4.14 6.67999 4.14C8.09999 4.14 9.26001 5.3 9.26001 6.72C9.26001 8.14 8.09999 9.3 6.67999 9.3ZM8.89999 25.56H4.44V11.24H8.89999V25.56ZM27.78 0H2.22C1 0 0 0.959988 0 2.15999V27.84C0 29.04 1 30 2.22 30H27.78C29 30 30 29.02 30 27.84V2.15999C30 0.979988 29.02 0 27.78 0Z" />
</svg>
